<?xml version="1.0" encoding="utf-8"?>
<!-- Generator: Adobe Illustrator 27.2.0, SVG Export Plug-In . SVG Version: 6.00 Build 0)  -->
<svg version="1.1" width="100%" height="100%" xmlns="http://www.w3.org/2000/svg" xmlns:xlink="http://www.w3.org/1999/xlink" x="0px" y="0px"
	 viewBox="0 0 612 792" style="enable-background:new 0 0 612 792;" xml:space="preserve">
<style type="text/css">
	.st0{fill:#FFFFFF;}
	.st1{fill:#010101;}
</style>
<g id="Brainstorming">
</g>
<g id="Iteration3">
	<g>
		<path class="st0" d="M58.31,579.04l247.69-429l247.69,429H58.31z M179.56,509.04h252.89L306,290.03L179.56,509.04z"/>
		<path class="st1" d="M306,180.03l221.71,384H84.29L306,180.03 M153.58,524.04h51.96h200.92h51.96l-25.98-45L331.98,305.03
			l-25.98-45l-25.98,45L179.56,479.04L153.58,524.04 M306,120.03l-273.67,474h547.33L306,120.03L306,120.03z M205.54,494.04
			L306,320.03l100.46,174.01H205.54L205.54,494.04z"/>
	</g>
	<rect x="32" y="607.04" class="st1" width="548" height="100"/>
	<g>
		<path class="st0" d="M91.36,627.05v61.98H72.33v-61.98H91.36z"/>
		<path class="st0" d="M155.16,689.04h-15.49l-16.98-27.39c-2.18-3.51-4.38-7.78-6.59-12.8c1,4,1.5,7.39,1.5,10.17v30.02h-15.44
			v-61.98h17.98l14.44,22.7c2.88,4.51,5.06,8.48,6.54,11.9c-0.97-5.3-1.45-10.72-1.45-16.26v-18.35h15.49V689.04z"/>
		<path class="st0" d="M165.97,689.04v-61.98h23.98c10.41,0,18.21,3.09,23.39,9.26s7.76,13.32,7.76,21.43
			c0,9.26-2.78,16.79-8.33,22.59c-5.56,5.8-12.77,8.7-21.64,8.7H165.97z M185,674.78h4.95c3.15,0,5.8-1.53,7.97-4.59
			c2.16-3.06,3.25-7.22,3.25-12.49c0-4.51-0.96-8.4-2.88-11.67s-4.7-4.9-8.33-4.9H185V674.78z"/>
		<path class="st0" d="M275.77,674.23v14.8h-46.64v-61.98h46.64v14.3H247.8v8.99h22.61v13.76H247.8v10.13H275.77z"/>
		<path class="st0" d="M336.36,627.05l-18.02,28.75l20.88,33.23h-22.14l-11.45-19.52l-11.55,19.52h-17.41l19.97-32.01l-19.15-29.98
			h22.19l9.62,16.68l9.98-16.68H336.36z"/>
		<path class="st0" d="M359.33,672.46v16.57h-17.26v-16.57H359.33z"/>
		<path class="st0" d="M395.7,689.99c-8.72,0-15.83-2.89-21.32-8.67c-5.5-5.78-8.24-13.52-8.24-23.2c0-9.26,2.63-16.92,7.88-22.96
			c5.25-6.04,12.54-9.06,21.86-9.06c8.63,0,15.66,2.85,21.09,8.54c5.43,5.69,8.15,13.29,8.15,22.8c0,9.84-2.74,17.73-8.22,23.66
			C411.43,687.02,404.36,689.99,395.7,689.99z M395.61,675.91c3.21,0,5.52-1.4,6.92-4.2c1.41-2.8,2.11-7.92,2.11-15.37
			c0-10.78-2.89-16.17-8.67-16.17c-6.24,0-9.36,6.15-9.36,18.44C386.62,670.15,389.62,675.91,395.61,675.91z"/>
		<path class="st0" d="M486.16,689.04h-15.49l-16.98-27.39c-2.18-3.51-4.38-7.78-6.59-12.8c1,4,1.5,7.39,1.5,10.17v30.02h-15.44
			v-61.98h17.98l14.44,22.7c2.88,4.51,5.06,8.48,6.54,11.9c-0.97-5.3-1.45-10.72-1.45-16.26v-18.35h15.49V689.04z"/>
		<path class="st0" d="M543.6,674.23v14.8h-46.64v-61.98h46.64v14.3h-27.97v8.99h22.61v13.76h-22.61v10.13H543.6z"/>
	</g>
	<g>
		<path d="M196.44,512.48c-0.49-0.34-0.98-0.69-1.46-1.03c1.38-0.29,2.85-0.37,4.14-0.9c2.7-1.12,5.27-0.36,7.48,0.85
			c6.17,3.38,12.12,7.17,18.25,10.63c1.07,0.6,2.64,0.68,3.91,0.5c2.34-0.33,4.08-2.57,6.67-2.28c2.46,0.27,5.1,0.14,7.34,1.01
			c2.92,1.13,5.54,3.07,8.6,4.85c0.98-1.39,2.16-3.06,3.33-4.74c1.54-2.2,4.13-1.66,6.23-2.37c1.95-0.65,3.78-0.27,5.43,1.1
			c1.31,1.09,2.75,2.05,4.2,2.95c0.5,0.31,1.42,0.55,1.81,0.3c1.62-1.08,3.11-2.35,4.98-3.81c-1.65-0.49-4.13-0.35-2.19-3.23
			c-8.26-1.57-16.24-3.08-24.14-4.59c0.09,1.15,0.15,1.89,0.2,2.62c-0.7-0.27-1.61-0.35-2.06-0.84c-1.8-1.96-4.07-3.02-6.6-3.14
			c-2.5-0.12-4.39-0.85-6.52-2.34c-3.38-2.36-7.45-3.72-11.2-5.56c-1.85-0.91-3.66-1.91-5.42-2.98c-0.37-0.23-0.46-0.93-0.68-1.42
			c0.59-0.17,1.24-0.58,1.75-0.45c0.68,0.17,1.21,0.88,1.88,1.15c1.36,0.54,2.77,0.93,4.16,1.39c0.11-0.23,0.22-0.47,0.33-0.7
			c-0.65-0.52-1.28-1.07-1.96-1.55c-2.68-1.88-5.39-3.72-8.04-5.64c-0.37-0.27-0.45-0.94-0.66-1.43c0.51-0.03,1.13-0.26,1.52-0.05
			c4.73,2.57,9.39,5.25,14.13,7.81c1.34,0.72,2.84,1.13,4.27,1.68c-1.13-1.04-2.31-1.72-3.49-2.38c-4.56-2.56-9.24-4.92-13.63-7.75
			c-3.78-2.44-7.31-5.3-10.78-8.17c-3.17-2.62-6.07-5.58-9.19-8.27c-1.48-1.27-1.23-2.17,0.39-2.64c0.98-0.29,2.38-0.32,3.19,0.18
			c6.65,4.17,12.55,9.44,19.86,12.67c4.49,1.98,8.58,4.88,12.85,7.36c-0.4,2.44,1.49,2.24,2.94,2.56c0.65,0.15,1.57,0.11,1.91,0.52
			c2.16,2.69,5.32,2.99,8.29,3.81c-0.56-1.2-0.38-3.3-2.77-2.09c-0.34,0.17-1.15-0.37-1.64-0.72c-0.7-0.52-1.41-1.1-1.94-1.79
			c-1.79-2.35-4.77-0.96-6.87-2.27c-0.39-0.55-0.67-1.25-1.19-1.61c-2.42-1.71-5.05-3.15-7.33-5.02c-3.41-2.8-6.6-5.87-9.88-8.82
			c-1.26-1.13-2.58-2.2-3.78-3.39c-3.6-3.58-7.18-7.18-10.7-10.83c-0.41-0.42-0.44-1.21-0.64-1.83c0.65,0.17,1.44,0.17,1.92,0.55
			c1.66,1.34,3.2,2.82,4.79,4.25c4.39,3.93,8.76,7.87,13.17,11.77c0.94,0.83,2.02,1.52,3.06,2.25c4.48,3.16,8.97,6.31,13.46,9.46
			c-2.52-2.8-5.32-5.23-8.04-7.74c-2.87-2.65-5.78-5.26-8.44-8.11c-2.76-2.95-5.19-6.2-7.84-9.25c-1.15-1.33-2.09-3.01-4.5-2.4
			c-0.88,0.22-2.05-0.68-3.09-1.05c-1.17-0.41-2.45-1.3-3.52-1.12c-4.13,0.71-8.59-0.84-12.42,2.21c-2.18,1.74-5.38,1.36-7.59-1.22
			c-2.68-3.14-4.83-6.73-7.45-9.92c-2-2.43-2.99-5.02-3.08-8.14c-0.13-4.38-1.77-5.78-6.04-6.95c-2.66-0.73-5.19-2.14-7.6-3.55
			c-2.29-1.34-4.3-3.13-6.51-4.62c-1.75-1.18-2.03-4.15-0.39-5.26c0.1,0.1,0.29,0.19,0.3,0.3c0.05,0.59-0.03,1.2,0.09,1.77
			c0.11,0.54,0.25,1.28,0.64,1.51c5.41,3.3,10.06,7.93,16.68,9.12c2.24,0.4,3.88,1.9,4.18,4.55c0.3,2.62,0.47,5.44,1.6,7.73
			c1.73,3.49,4.14,6.68,6.45,9.86c2.17,3,4.42,3.95,6.51,2.9c3.34-1.68,6.6-2.82,10.55-2.78c3.62,0.03,7.06-0.21,10.28,1.71
			c0.04,0.02,0.2-0.16,0.43-0.37c-0.52-0.59-1.18-1.11-1.51-1.79c-0.28-0.58-0.19-1.33-0.27-2.01c0.58,0.18,1.3,0.2,1.7,0.57
			c1.03,0.96,1.92,2.08,3.27,3.57c-0.04-1.05,0.08-1.54-0.09-1.85c-3.04-5.47-6.31-10.82-9.12-16.4
			c-2.68-5.32-4.94-10.85-7.28-16.34c-0.23-0.54,0.29-1.41,0.46-2.12c0.6,0.43,1.4,0.74,1.75,1.32c0.58,0.96,0.88,2.09,1.29,3.15
			c0.2-0.01,0.4-0.03,0.6-0.04c0.1-0.97,0.4-1.96,0.27-2.89c-0.2-1.38-0.84-2.7-1.05-4.08c-0.1-0.66,0.35-1.41,0.55-2.12
			c0.54,0.52,1.35,0.94,1.59,1.58c1.03,2.77,1.84,5.62,2.83,8.41c0.56,1.58,1.31,3.1,1.98,4.64c0.17-0.07,0.33-0.14,0.5-0.21
			c-1-3.06-2.17-6.07-2.95-9.18c-1.43-5.67-2.87-11.36-3.81-17.12c-0.48-2.97,0.03-6.11,0.24-9.17c0.12-1.79,0.82-1.97,2.35-0.85
			c0.52,0.38,1.12,0.65,2,1.14c-2.09,1.89-1.3,3.56,0.21,5.19c0.18,0.2,0.21,0.55,0.28,0.84c1.13,4.42,2.24,8.84,3.4,13.26
			c0.95,3.64,1.89,7.29,2.97,10.9c0.22,0.72,1.07,1.25,1.63,1.86c0.2-0.08,0.39-0.16,0.59-0.24c-0.27-2.63-0.41-5.29-0.85-7.89
			c-0.9-5.38-2-10.72-2.9-16.09c-0.14-0.87,0.37-1.85,0.58-2.77c0.4,0.01,0.79,0.02,1.19,0.03c0.93,5.01,1.86,10.03,2.8,15.04
			c0.34-0.03,0.67-0.05,1.01-0.08c0.16-3.29,0.24-6.59,0.55-9.87c0.08-0.85,0.91-1.63,1.65-2.88c0.13-0.93,0.36-2.5,0.59-4.07
			c0.37-2.48,0.79-4.95,1.1-7.44c0.3-2.34,0.33-4.72,0.76-7.03c0.47-2.52,1.37-4.95,1.88-7.46c0.64-3.14,1.08-6.32,1.59-9.49
			c0.4-2.45,1.44-4.67-0.43-7.3c-1.66-2.34-3.03-5.51-2.95-8.27c0.08-3.05,1.45-6.4,3.18-8.99c2.32-3.47,5.54-6.34,8.35-9.49
			c1.04-1.17,2-2.3,1.1-4.14c-0.59-1.21-1.35-2.92-0.91-3.92c0.88-2.03,2.26-4.04,3.91-5.51c2.88-2.56,3.02-4.9-0.1-7.03
			c-2.04-1.4-2.6-5.75-0.94-7.63c1.57-1.77,3.35-3.38,4.72-5.3c0.94-1.32,1.91-3.06,1.84-4.56c-0.13-2.91,0.86-5.3,2.01-7.8
			c0.76-1.65,1.22-3.45,1.82-5.18c0.43-0.61,0.86-1.22,1.29-1.83c1.14,2.66-0.18,4.98-1.28,7.15c-1.21,2.37-2.22,4.65-2.09,7.38
			c0.12,2.46-0.83,4.47-2.53,6.37c-1.61,1.8-2.87,3.99-3.92,6.18c-0.64,1.33-0.91,3,0.61,4.26c3.62,3.02,3.36,6.61-0.62,9.26
			c-2.38,1.58-3.25,4.27-1.96,6.67c1.26,2.34,0.27,5.29-1.79,7.23c-4,3.75-8.6,6.97-8.94,13.16c-0.01,0.13-0.12,0.27-0.21,0.39
			c-1.58,2.3-1.01,4.6-0.04,6.92c0.31,0.73,0.41,1.56,0.78,2.25c0.28,0.53,0.8,1.22,1.27,1.27c0.5,0.05,1.33-0.46,1.56-0.94
			c1.57-3.32,2.93-6.73,4.53-10.03c0.84-1.75,1.97-3.38,3.07-4.99c0.19-0.27,1.05-0.4,1.32-0.21c0.28,0.2,0.45,0.98,0.29,1.33
			c-1.09,2.33-2.35,4.58-3.4,6.92c-0.55,1.23-0.79,2.6-1.16,3.9c0.24,0.08,0.49,0.15,0.73,0.23c2.15-2.16,3.56-4.85,4.15-7.77
			c0.32-1.58-1.02-3.69,2.16-3.25c0.2,0.03,0.5-0.5,0.72-0.8c0.57-0.79,1.02-1.67,1.69-2.36c0.43-0.44,1.15-0.61,1.74-0.89
			c-0.08,0.65,0.03,1.4-0.27,1.92c-1.48,2.56-3.22,4.99-4.58,7.61c-1.26,2.42-2.17,5.04-3.23,7.56c0.76-0.42,1.23-0.97,1.57-1.59
			c1.3-2.39,2.38-4.93,3.88-7.19c3.26-4.92,6.72-9.71,10.11-14.54c0.98-1.4,1.88-2.89,3.04-4.13c3.1-3.32,6.42-6.45,9.47-9.81
			c2.08-2.3,4.01-4.61,7.54-4.2c0.48,0.06,1.29,0.05,1.36,0.27c0.16,0.47,0.05,1.12-0.15,1.61c-1.66,4.06-5.41,6.46-7.92,9.89
			c-2.77,3.78-6.34,6.97-9.24,10.68c-5.53,7.08-10.12,14.77-14.05,22.84c-1.1,2.27-1.98,4.64-2.96,6.97
			c0.15,0.15,0.31,0.3,0.46,0.44c1.3-1.2,2.9-2.2,3.83-3.64c2.04-3.15,3.51-6.68,5.64-9.75c3.67-5.3,7.67-10.37,11.53-15.53
			c0.13-0.18,0.27-0.36,0.42-0.52c3.24-3.3,6.45-6.63,9.73-9.9c1.41-1.4,2.89-2.75,4.45-3.97c0.46-0.36,1.31-0.23,1.99-0.32
			c-0.19,0.65-0.34,1.32-0.59,1.95c-0.1,0.24-0.47,0.35-0.68,0.56c-2.8,2.81-5.73,5.52-8.37,8.49c-3.24,3.64-6.23,7.49-9.34,11.25
			c-0.14,0.17-0.35,0.28-0.48,0.46c-2.58,3.44-5.18,6.85-7.68,10.34c-0.45,0.63-0.45,1.58-0.74,2.68c1.42-0.85,2.73-1.31,3.58-2.2
			c2.4-2.49,4.94-4.95,6.83-7.81c3.01-4.56,7.3-7.73,11.31-11.17c4.54-3.9,9.28-7.63,14.29-10.89c4.96-3.23,10.34-5.83,15.57-8.63
			c0.65-0.35,1.55-0.23,2.34-0.32c-0.14,0.27-0.28,0.54-0.43,0.81c0.46,0.63,0.91,1.81,1.37,1.81c3.41-0.01,6.33-2.33,9.86-2.15
			c1.32,0.07,2.66-0.63,4.02-0.77c0.68-0.07,1.41,0.31,2.12,0.49c-0.55,0.59-1,1.37-1.68,1.73c-1.69,0.9-3.87,1.06-4.78,3.41
			c0.42-0.06,0.7-0.09,0.97-0.15c2.82-0.63,5.63-1.31,8.47-1.87c0.45-0.09,1.01,0.35,1.52,0.54c-0.28,0.48-0.46,1.09-0.87,1.39
			c-0.45,0.33-1.11,0.35-1.68,0.52c-1.72,0.49-3.43,0.98-5.62,1.61c0.74,0.33,0.94,0.5,1.1,0.47c6.85-1.12,13.71-2.24,20.55-3.46
			c0.48-0.09,1.08-0.93,1.17-1.5c0.36-2.07,1.23-3.83,2.9-5.05c1.12-0.82,2.41-1.43,3.69-1.99c2.87-1.26,6.1-6.31,5.31-9.21
			c-1.23-4.56,4.17-8.89,7.87-7.57c3.54,1.26,6.93,3.19,10.06,5.3c2.38,1.6,4.45,2.96,7.3,1.44c0.78-0.42,1.61-0.77,2.41-1.15
			c0.37,0.26,0.73,0.51,1.1,0.77c-2.77,2.72-6.92,3.26-10.14,1.34c-3.31-1.97-6.55-4.12-10-5.8c-3.45-1.68-7.38,1.45-7.01,5.25
			c0.14,1.39,0.48,3.12-0.15,4.14c-1.93,3.09-3.41,6.63-7.21,8.22c-2.15,0.9-3.42,2.71-3.25,5.22c3.29,0.8,6.77-1.23,9.98,1.15
			c-7.84,1.48-13.64,6.69-20.34,10.25c0.77,0.21,1.52,0.03,2.17,0.21c0.56,0.16,1,0.72,1.49,1.11c-0.52,0.43-0.99,0.95-1.58,1.27
			c-0.35,0.18-0.88,0-1.32,0.04c-2.87,0.3-3.07,0.53-3.21,3.63c3.4,0.02,6.79,0.07,10.18,0.03c0.43-0.01,1.01-0.36,1.27-0.74
			c1.95-2.8,4.44-3.14,7.63-2.34c1.79,0.45,3.94,0.16,5.76-0.38c1.63-0.48,2.93-2,4.55-2.62c0.93-0.36,2.41-0.2,3.27,0.33
			c2.64,1.63,5.31,2.56,8.42,1.86c0.48-0.11,1.02,0.08,2.02,0.18c-0.86,0.79-1.3,1.19-1.74,1.6c3.35,2.94,3.37,2.96,6.97,0.95
			c1.69-0.94,3.29-1.22,5.02-0.1c1.4,0.91,2.8,0.95,4.4,0.11c0.97-0.51,2.28-0.43,3.44-0.48c1.53-0.06,3.16,0.35,4.59-0.03
			c6.03-1.61,9.21,3.04,13.77,5.64c-2.06,0.54-4.5-0.57-6.19-2.26c-0.69-0.69-1.63-1.49-2.5-1.56c-4.51-0.33-9.03-0.5-13.49,0.72
			c-1.12,0.31-2.74,0.47-3.57-0.1c-2.86-1.97-4.95-0.49-6.87,1.25c-1.27,1.16-2.13,0.97-3.25,0.04c-0.63-0.52-1.28-1.07-2.02-1.4
			c-3.64-1.64-7.31-3.21-11.13-4.88c-0.34,2.12-0.83,3.01-2.63,2.3c-0.44-0.17-1.29,0.75-1.97,1.15c-0.52,0.3-1.08,0.86-1.58,0.81
			c-2.68-0.26-5.33-0.78-8.01-0.97c-0.85-0.06-1.74,0.58-2.66,0.91c0.33,0.97,0.36,2.11,0.86,2.37c2.06,1.08,4.2,2.16,6.44,2.75
			c2.94,0.77,6,1.12,9.02,1.55c1.18,0.17,2.4,0.05,3.8,0.06c0.3,0.3,0.76,1.13,1.41,1.34c3.86,1.2,7.81,2.11,11.64,3.39
			c2.5,0.84,4.87,2.09,7.24,3.27c0.35,0.17,0.39,0.96,0.58,1.46c-0.47,0.05-0.98,0.25-1.39,0.12c-1.19-0.38-2.29-1.07-3.5-1.32
			c-2.16-0.45-4.36-0.8-6.55-0.93c-2.26-0.13-4.67-1.72-6.75,0.35c3.53,1.63,7.13,3.11,10.57,4.9c5.62,2.92,11.11,6.07,16.7,9.06
			c1.09,0.58,2.36,0.8,3.5,1.3c0.48,0.21,0.9,0.66,1.25,1.08c0.52,0.63,0.84,1.48,1.46,1.98c2.78,2.23,5.59,4.41,8.47,6.51
			c1.34,0.98,0.56,2.05,0.2,2.96c-0.13,0.33-1.36,0.49-1.98,0.32c-1.98-0.54-3.53-1.72-5.16-3.04c-2.18-1.77-5.09-2.59-7.53-4.09
			c-2.92-1.79-5.53-4.08-8.51-5.75c-4.1-2.3-8.38-4.28-12.63-6.3c-2.27-1.07-4.63-1.93-6.96-2.88c-0.12,0.18-0.25,0.35-0.37,0.53
			c0.71,0.89,1.27,1.99,2.16,2.61c1.76,1.21,3.72,2.12,5.57,3.2c3.38,1.96,6.87,3.76,10.08,5.97c4.14,2.84,8.06,6.01,12.08,9.04
			c0.48,0.36,1.01,0.66,1.44,1.06c4.02,3.7,8.07,7.36,11.98,11.16c0.76,0.74,0.97,2.04,1.44,3.08c-0.92-0.46-1.99-0.75-2.75-1.4
			c-5.28-4.51-10.5-9.09-15.74-13.65c-0.28-0.24-0.49-0.57-0.79-0.77c-1.25-0.84-2.52-1.65-4.41-2.87
			c-2.73-4.12-8.47-5.27-12.78-8.49c1.12,2,1.87,4.23,4.45,4.85c0.66,0.16,1.26,0.74,1.8,1.23c1.63,1.48,3.22,3.03,4.83,4.53
			c2.11,1.96,4.27,3.86,6.32,5.87c0.34,0.33,0.26,1.1,0.38,1.66c-0.52-0.11-1.1-0.11-1.56-0.34c-0.71-0.37-1.34-0.91-2.12-1.45
			c5.11,6.42,10.1,12.68,15.49,19.46c1.13,0.03,0.81,1.79,1.46,3.05c1.41,2.76,3.34,5.25,4.95,7.91c1.37,2.27,2.79,4.54,3.86,6.95
			c1.53,3.46,2.81,7.03,4.11,10.59c0.9,2.45,1.72,4.94,2.45,7.45c0.19,0.66-0.09,1.45-0.15,2.19c-0.23,0.07-0.46,0.14-0.69,0.21
			c-0.47-0.66-1.09-1.26-1.4-1.99c-1.32-3.14-2.48-6.35-3.84-9.48c-0.57-1.33-1.47-2.52-2.22-3.77c-0.18,0.12-0.36,0.25-0.54,0.37
			c1.48,4.49,3.03,8.96,4.4,13.48c0.6,1.99,1.62,4.07,0.21,6.32c-0.76-0.74-1.35-1.53-1.63-2.42c-1.66-5.15-3.23-10.33-4.88-15.48
			c-0.25-0.76-0.78-1.44-1.18-2.15c1.17,4.99,3.1,9.71,4.05,14.62c1.21,6.29,3.73,12.53,2.01,19.15c-0.16,0.63-0.68,1.17-1.04,1.75
			c-0.52-0.35-1.3-0.58-1.51-1.07c-0.49-1.13-0.7-2.39-1.06-3.59c-0.14-0.45-0.36-0.89-0.58-1.31c-0.46-0.88-1.16-1.68-1.39-2.61
			c-1.4-5.66-2.67-11.36-4.06-17.03c-0.59-2.42-1.59-3.03-3.8-2.48c0.43,1.01,1.05,1.95,1.24,2.96c0.67,3.57,1.25,7.16,1.74,10.76
			c0.5,3.66,0.7,7.38,1.34,11.01c0.64,3.62-0.93,7.53,1.41,10.92c0.06,0.09-0.05,0.28-0.05,0.43c0.01,0.89,0.03,1.78,0.06,2.99
			c-0.49,0.38-1.28,0.99-2.7,2.1c-1.3-7.76-0.59-15.25-1.9-22.48c-1.35-7.43-2.24-15-5.19-22.11c-0.4,0.71-0.6,1.41-0.52,2.08
			c0.33,2.83,0.61,5.68,1.16,8.47c0.36,1.84,0.13,3.2-1.46,3.82c-0.18,6.21-0.36,12.17-0.52,17.67c1.24,0.51,2.73,0.82,2.74,1.17
			c0.07,2.59,2.03,4.18,3.03,6.25c0.53,1.09,1.18,2.22-0.23,2.77c-0.55,0.22-1.82-0.62-2.37-1.3c-1.32-1.62-2.4-3.44-3.62-5.24
			c-0.93,3.77,0.19,7.89-2.04,11.41c-0.34,0.54-0.38,1.26-0.62,1.87c-0.76,1.92,0.32,4.88,2.17,5.94c0.36,0.2,0.92,0.52,0.92,0.79
			c0.06,2.75,0.42,5.58-0.09,8.24c-0.98,5.17,0.33,9.15,5.39,12.37c1.73,1.1,2.63,3.84,1.96,5.89c-0.57,1.76-0.95,3.59-1.55,5.34
			c-0.7,2.02-1.33,4.13-2.41,5.95c-0.88,1.49-1,2.31,0.37,3.57c1.37,1.26,3.28,2.99,3.27,4.49c-0.04,4.4-0.57,8.88-3.07,12.77
			c-3.15,4.9-7.68,7.99-13.09,9.85c-2.42,0.83-4.26,1.91-4.17,4.92c0.13,4.72,0.06,9.44,0.08,14.16c-0.77,1.1-1.54,2.2-2.31,3.29
			c-0.7-0.1-1.4-0.2-2.1-0.3c2.93-1.96,3.2-4.69,3.11-7.48c-0.08-2.44-0.3-4.89-0.63-7.32c-0.77-5.66-0.17-6.63,5.07-8.5
			c5.39-1.92,10.05-4.93,12.75-10.14c1.13-2.17,1.51-4.73,2.24-7.11c1.27-4.11,1.16-4.5-2.16-7.2c-2.26-1.84-2.31-3.03-0.97-5.55
			c1.02-1.93,1.69-4.07,2.31-6.18c0.45-1.54,0.45-3.21,0.84-4.77c0.44-1.76,0.25-3.18-1.2-4.42c-1.12-0.96-2.2-2-3.13-3.14
			c-2.48-3.03-4.47-6.09-2.89-10.45c1.01-2.78,0.21-5.63-2.16-8.31c-0.52,1.83-0.9,3.35-1.39,4.83c-1.14,3.44-2.16,6.93-3.55,10.27
			c-1.62,3.87-3.57,7.6-5.42,11.37c-0.27,0.54-0.73,1.04-1.23,1.38c-0.17,0.11-1.03-0.34-1.04-0.56c-0.03-0.59,0.15-1.24,0.39-1.79
			c1.7-3.84,3.5-7.63,5.12-11.5c0.27-0.65-0.15-1.59-0.32-2.86c-0.65,0.78-1.04,1.06-1.2,1.45c-1.19,2.97-2.34,5.97-3.5,8.96
			c-0.24,0.62-0.34,1.34-0.72,1.84c-1.83,2.42-3.73,4.78-5.6,7.17c-0.51,0.65-1.03,1.3-1.74,2.21c-0.47-0.95-0.74-1.5-1.15-2.33
			c-0.95,1.7-1.6,3.38-2.69,4.72c-1.56,1.92-4.28,2.88-4.59,5.83c-0.04,0.37-0.48,0.73-0.81,1.02c-3.62,3.2-7.26,6.38-10.88,9.58
			c-2.24,1.98-4.11,4.65-7.69,4.15c-0.41-0.06-1.09,0.03-1.18-0.16c-0.17-0.38-0.03-0.91,0.01-1.38c0.24-2.98,4.22-4.02,3.84-7.35
			c-0.02-0.17,0.41-0.38,0.63-0.58c1.65-1.47,3.66-2.69,4.9-4.46c4.75-6.73,9.26-13.63,13.84-20.48c0.09-0.13-0.03-0.39-0.09-1.05
			c-1.18,0.98-2.24,1.66-3.05,2.56c-2.55,2.86-4.91,5.9-7.53,8.69c-3.87,4.13-7.89,8.12-11.89,12.13c-0.58,0.58-1.44,0.9-2.17,1.34
			c0.31-0.96,0.61-1.92,0.94-2.87c0.07-0.2,0.27-0.35,0.42-0.51c4.27-4.42,8.69-8.71,12.78-13.29c2.86-3.2,5.39-6.71,7.87-10.22
			c2.26-3.2,4.28-6.59,6.36-9.91c0.17-0.28,0.08-0.72,0.12-1.25c-0.43,0.19-0.66,0.23-0.82,0.36c-4.06,3.14-6.25,7.91-10.03,11.35
			c-4.44,4.06-8.24,8.85-12.79,12.76c-6.68,5.75-13.74,11.09-21.69,15.07c-0.63,0.32-1.47,0.22-2.21,0.31
			c0.35-0.72,0.52-1.64,1.08-2.11c0.95-0.8,2.14-1.3,3.23-1.93c-3.03,0.53-5.9,1.24-8.71,2.17c-0.92,0.31-1.58,1.42-2.5,1.74
			c-3.14,1.09-6.32,2.05-9.53,2.91c-1.23,0.33-2.57,0.25-3.86,0.35c-0.06-0.26-0.11-0.53-0.17-0.79c1.78-2.86,6.03-2.5,7.73-5.51
			c-1.58,0.28-3.01,0.91-4.5,1.23c-0.73,0.15-1.59-0.29-2.39-0.46c0.51-0.55,0.99-1.13,1.54-1.63c0.32-0.29,0.75-0.44,1.13-0.66
			c-0.72-0.31-1.3-0.29-1.87-0.17c-6.1,1.27-12.19,2.6-18.3,3.8c-2,0.39-4.19,0.95-6.06,0.5c-1.41-0.34-2.56-0.64-3.64,0.21
			c-1.1,0.87-1.94,2.06-2.96,3.03c-0.37,0.36-0.93,0.52-1.41,0.77c-0.25-0.5-0.79-1.07-0.68-1.48c0.28-1.12,0.52-2.55,1.32-3.16
			c2.18-1.68,4.63-3,7.37-4.71c-0.6-0.64-1.22-1.32-1.85-1.99c-2.34-2.45-5.24-2.63-8.39-2.26c-1.32,0.15-2.71-0.35-4.06-0.55
			c-0.01-0.42-0.02-0.83-0.03-1.25c1.65-0.3,3.3-0.61,5.02-0.92c-0.22-0.3-0.33-0.5-0.48-0.64c-2.31-2.11-4.94-1.14-7.43-0.59
			c-1.03,0.22-1.99,1-2.84,1.7c-0.68,0.57-1.09,1.46-1.73,2.09c-1.08,1.04-2.29,2.79-3.39,2.75c-1.22-0.05-2.35-1.81-3.58-2.74
			c-1.18-0.89-2.32-2.36-4.05-0.73c-0.07,0.07-1.55-0.94-1.47-1.18c0.55-1.84-0.84-2.08-1.83-1.97c-2.84,0.31-6.01,0.23-8.4,1.52
			c-5.07,2.73-8.83-0.63-12.7-2.27c-3.87-1.63-7.23-4.57-10.68-7.11C204.46,511.53,200.59,511.24,196.44,512.48z M284.64,354.63
			c-0.14-0.25-0.27-0.5-0.41-0.75c-4.02,1.56-8.23,2.75-11.99,4.79c-3.85,2.09-7.51,4.73-10.8,7.64c-4.66,4.11-9.41,8.12-13.2,13.22
			c-2.5,3.36-4.15,7.04-6.12,10.61c-1.46,2.65-3,5.27-4.57,7.85c-0.21,0.34-0.84,0.42-1.27,0.62c-0.11-0.51-0.41-1.06-0.3-1.51
			c0.44-1.8,1.07-3.55,1.52-5.35c0.26-1.06,0.32-2.17,0.46-3.26c-0.22-0.04-0.44-0.08-0.66-0.12c-2.87,3.49-3.91,7.93-4.92,12.07
			c-1.61,6.61-2.58,13.46-3.02,20.26c-0.29,4.48,0.47,9.12,1.37,13.57c1,4.97,2.75,9.78,4.06,14.69c0.51,1.92,1.34,3.66,1.43,5.85
			c0.1,2.33,2.19,4.56,3.32,6.88c0.32,0.66,0.33,1.48,0.49,2.22c0.33,1.61,0.21,3.55,1.09,4.76c3.14,4.35,6.5,8.57,10.02,12.62
			c1.97,2.27,4.11,4.81,6.73,5.95c2.31,1.01,3.99,2.6,6.03,3.81c3.05,1.81,5.67,4.34,9.25,5.28c1.75,0.46,3.42,1.3,5.06,2.11
			c0.49,0.25,0.75,0.97,1.11,1.48c-0.65,0.16-1.37,0.57-1.94,0.42c-1.81-0.45-3.57-1.11-5.36-1.69c1.24,2.58,3.46,3.85,5.92,4.33
			c6.54,1.27,13.12,2.29,19.69,3.4c1.75,0.3,3.5,0.8,5.25,0.77c8.11-0.12,15.86-2.24,23.54-4.6c2.12-0.65,4.12-1.67,6.22-2.39
			c0.7-0.24,1.52-0.11,2.29-0.14c-0.14,0.72-0.28,1.44-0.41,2.13c2.65-0.13,3.97-2.99,6.77-3.46c1.99-0.34,3.8-2,5.59-3.23
			c4.03-2.76,8.37-5.18,11.12-9.45c0.2-0.31,0.45-0.7,0.75-0.79c3.3-0.93,4.53-4.17,6.86-6.17c0.54-0.46,0.86-1.21,1.22-1.85
			c2.28-4.13,4.48-8.3,6.85-12.37c0.41-0.71,1.45-1.05,2.01-1.43c2.31-2,1.81-5.67,5.03-7.13c-0.07-0.32-0.31-0.78-0.23-1.17
			c0.52-2.65,1.25-5.26,1.65-7.92c0.91-6.08,2.4-12.1,0.76-18.36c-1.37-5.2-2.26-10.52-3.31-15.8c-0.23-1.17-1.14-2.55,0.94-3.8
			c1.65,3.24,3.25,6.38,5.09,9.99c0.31-0.88,0.64-1.33,0.58-1.71c-0.23-1.35-0.53-2.7-0.92-4.01c-0.76-2.5-1.32-5.11-2.47-7.42
			c-4.08-8.17-9.83-15.25-15.49-22.33c-4.28-5.35-9.04-10.35-15.58-13.16c-4.42-1.9-8-5.38-12.66-6.89
			c-0.82-0.26-1.54-0.91-2.23-1.47c-0.27-0.22-0.54-0.82-0.43-1.05c0.15-0.3,0.7-0.59,1.06-0.56c0.65,0.05,1.27,0.38,1.92,0.51
			c3.05,0.6,6.1,1.17,9.14,1.75c0.07-0.19,0.14-0.39,0.21-0.58c-2.22-1.18-4.31-2.87-6.68-3.45c-6.31-1.55-12.72-2.69-19.11-3.87
			c-5.82-1.07-11.61-2.67-17.63-1.54c-3.53,0.66-7.09,1.2-10.59,2.01c-3.17,0.74-6.39,1.49-9.35,2.79
			c-1.72,0.76-2.83,0.35-4.82-0.49C282.17,356.52,283.4,355.57,284.64,354.63z M285.26,528.87c4.09-0.95,7.98-1.74,11.81-2.78
			c1.74-0.47,3.3-1.85,5.04-2.05c1.95-0.23,2.01-1.12,2-2.21c-1.85,0.19-3.61,0.29-5.35,0.57c-4.05,0.66-8.09,1.38-12.12,2.16
			c-0.51,0.1-1.17,0.69-1.31,1.18C285.11,526.54,285.27,527.44,285.26,528.87z M312.24,334.79c0.07,0.29,0.13,0.58,0.2,0.87
			c6.58,2.19,12.06,0.05,17.02-4.1c-0.07-0.28-0.14-0.55-0.2-0.83C323.59,332.09,317.92,333.44,312.24,334.79z M299.82,519.39
			c-0.04-0.19-0.07-0.39-0.11-0.58c-1.18,0.08-2.36,0.22-3.54,0.24c-3.15,0.04-6.3,0.08-9.44,0.01c-1.66-0.04-1.31,1.26-1.65,2.13
			c0.64,0.25,1.33,0.78,1.92,0.7c3.88-0.53,7.75-1.19,11.62-1.84C299.04,519.97,299.42,519.62,299.82,519.39z M323.41,338.69
			c-3.5,0.71-6.83,1.38-9.64,1.95C317.84,342.18,321.99,341.52,323.41,338.69z M368,504.09c1.69-2.79,3.38-5.58,5.06-8.38
			C370,497.66,366.27,499.17,368,504.09z M277.89,522.66c4.64,0.5,5.28-0.06,4.3-3.66C280.79,520.21,279.46,521.33,277.89,522.66z
			 M217.61,426c-0.06-2.59-0.12-5.18-0.19-7.77c-0.19,0-0.37,0.01-0.56,0.01C216.4,420.84,215.71,423.45,217.61,426z"/>
		<path class="st0" d="M284.64,354.63c-1.24,0.95-2.47,1.89-4.06,3.1c1.98,0.85,3.09,1.25,4.82,0.49c2.96-1.3,6.18-2.05,9.35-2.79
			c3.5-0.81,7.06-1.35,10.59-2.01c6.02-1.13,11.81,0.47,17.63,1.54c6.39,1.18,12.81,2.32,19.11,3.87c2.37,0.58,4.46,2.27,6.68,3.45
			c-0.07,0.19-0.14,0.39-0.21,0.58c-3.05-0.58-6.1-1.15-9.14-1.75c-0.65-0.13-1.27-0.46-1.92-0.51c-0.36-0.03-0.91,0.26-1.06,0.56
			c-0.12,0.23,0.15,0.83,0.43,1.05c0.69,0.56,1.41,1.21,2.23,1.47c4.66,1.51,8.24,4.99,12.66,6.89c6.54,2.82,11.29,7.81,15.58,13.16
			c5.66,7.08,11.4,14.16,15.49,22.33c1.15,2.31,1.71,4.93,2.47,7.42c0.4,1.31,0.69,2.66,0.92,4.01c0.06,0.38-0.26,0.82-0.58,1.71
			c-1.84-3.61-3.44-6.75-5.09-9.99c-2.08,1.24-1.17,2.62-0.94,3.8c1.05,5.28,1.94,10.6,3.31,15.8c1.64,6.26,0.16,12.28-0.76,18.36
			c-0.4,2.66-1.13,5.28-1.65,7.92c-0.08,0.39,0.16,0.84,0.23,1.17c-3.22,1.46-2.72,5.14-5.03,7.13c-0.56,0.38-1.6,0.72-2.01,1.43
			c-2.36,4.08-4.57,8.24-6.85,12.37c-0.36,0.65-0.68,1.39-1.22,1.85c-2.33,2-3.56,5.23-6.86,6.17c-0.3,0.09-0.56,0.49-0.75,0.79
			c-2.75,4.27-7.09,6.69-11.12,9.45c-1.79,1.22-3.6,2.89-5.59,3.23c-2.8,0.47-4.13,3.34-6.77,3.46c0.13-0.69,0.27-1.41,0.41-2.13
			c-0.77,0.04-1.59-0.1-2.29,0.14c-2.1,0.73-4.1,1.74-6.22,2.39c-7.68,2.36-15.43,4.47-23.54,4.6c-1.75,0.03-3.5-0.48-5.25-0.77
			c-6.57-1.11-13.15-2.13-19.69-3.4c-2.46-0.48-4.68-1.74-5.92-4.33c1.78,0.58,3.54,1.24,5.36,1.69c0.58,0.14,1.29-0.27,1.94-0.42
			c-0.36-0.51-0.62-1.23-1.11-1.48c-1.64-0.81-3.3-1.65-5.06-2.11c-3.58-0.94-6.2-3.47-9.25-5.28c-2.04-1.21-3.72-2.8-6.03-3.81
			c-2.62-1.14-4.76-3.68-6.73-5.95c-3.52-4.06-6.88-8.27-10.02-12.62c-0.88-1.22-0.75-3.16-1.09-4.76
			c-0.15-0.74-0.17-1.56-0.49-2.22c-1.13-2.32-3.22-4.55-3.32-6.88c-0.09-2.19-0.91-3.93-1.43-5.85c-1.31-4.91-3.06-9.72-4.06-14.69
			c-0.9-4.45-1.66-9.08-1.37-13.57c0.45-6.8,1.41-13.64,3.02-20.26c1.01-4.14,2.06-8.58,4.92-12.07c0.22,0.04,0.44,0.08,0.66,0.12
			c-0.15,1.09-0.2,2.2-0.46,3.26c-0.45,1.8-1.07,3.55-1.52,5.35c-0.11,0.45,0.19,1,0.3,1.51c0.43-0.2,1.06-0.28,1.27-0.62
			c1.57-2.59,3.11-5.2,4.57-7.85c1.97-3.57,3.62-7.25,6.12-10.61c3.8-5.1,8.55-9.1,13.2-13.22c3.29-2.91,6.95-5.55,10.8-7.64
			c3.76-2.04,7.98-3.23,11.99-4.79C284.37,354.13,284.5,354.38,284.64,354.63z"/>
	</g>
</g>
</svg>
